<svg width="54" height="48" viewBox="0 0 54 48" fill="none" xmlns="http://www.w3.org/2000/svg">
<path d="M2.625 4.02124H6.20381L12.0084 27.2386C9.45544 27.5861 7.47469 29.7575 7.47469 32.4054C7.47469 35.2929 9.82388 37.6422 12.7116 37.6422H48.0131C49.0494 37.6422 49.8881 36.8026 49.8881 35.7672C49.8881 34.7319 49.0494 33.8922 48.0131 33.8922H12.7114C11.892 33.8922 11.2245 33.2247 11.2245 32.4054C11.2245 31.5851 11.892 30.9176 12.7114 30.9176H14.3923H44.6514C45.459 30.9176 46.1749 30.4012 46.4293 29.6358L53.1529 9.46399C53.3451 8.89174 53.2481 8.2638 52.8966 7.7748C52.5431 7.28505 51.9774 6.99593 51.375 6.99593H17.754C16.7186 6.99593 15.879 7.83555 15.879 8.87093C15.879 9.9063 16.7186 10.7459 17.754 10.7459H48.7731L43.3001 27.1677H15.8561L9.48694 1.69137C9.27806 0.857177 8.52825 0.27124 7.66781 0.27124H2.625C1.58962 0.27124 0.75 1.11086 0.75 2.14624C0.75 3.18162 1.58962 4.02124 2.625 4.02124Z" fill="white"/>
<path d="M35.7375 42.8811C35.7375 45.5623 37.9126 47.7373 40.5938 47.7373C43.2563 47.7373 45.4313 45.5623 45.4313 42.8811C45.4313 40.2186 43.2563 38.0436 40.5938 38.0436C37.9126 38.0436 35.7375 40.2186 35.7375 42.8811ZM41.6813 42.8811C41.6813 43.4811 41.1938 43.9873 40.5938 43.9873C39.9751 43.9873 39.4876 43.4811 39.4876 42.8811C39.4876 42.2811 39.9751 41.7936 40.5938 41.7936C41.1938 41.7936 41.6813 42.2811 41.6813 42.8811Z" fill="white"/>
<path d="M12 42.8811C12 45.5623 14.175 47.7373 16.8375 47.7373C19.5188 47.7373 21.6938 45.5623 21.6938 42.8811C21.6938 40.2186 19.5188 38.0436 16.8375 38.0436C14.175 38.0436 12 40.2186 12 42.8811ZM17.9438 42.8811C17.9438 43.4811 17.4375 43.9873 16.8375 43.9873C16.2375 43.9873 15.75 43.4811 15.75 42.8811C15.75 42.2811 16.2375 41.7936 16.8375 41.7936C17.4375 41.7936 17.9438 42.2811 17.9438 42.8811Z" fill="white"/>
<path d="M26.1597 24.1941H34.5642C35.6005 24.1941 36.4392 23.3545 36.4392 22.3191C36.4392 21.2837 35.6005 20.4441 34.5642 20.4441H26.1597C25.1243 20.4441 24.2847 21.2837 24.2847 22.3191C24.2847 23.3545 25.1241 24.1941 26.1597 24.1941Z" fill="white"/>
<path d="M26.1597 17.4695H34.5642C35.6005 17.4695 36.4392 16.6299 36.4392 15.5945C36.4392 14.5591 35.6005 13.7195 34.5642 13.7195H26.1597C25.1243 13.7195 24.2847 14.5591 24.2847 15.5945C24.2847 16.6299 25.1241 17.4695 26.1597 17.4695Z" fill="white"/>
</svg>
