<svg width="48" height="48" viewBox="0 0 48 48" fill="none" xmlns="http://www.w3.org/2000/svg">
<path d="M45.3322 20.1638H28.5937C28.076 20.1638 27.6562 20.5835 27.6562 21.1013C27.6562 21.6191 28.076 22.0388 28.5937 22.0388H45.3322C45.7694 22.0388 46.125 22.3944 46.125 22.8316V40.8967C46.125 41.3339 45.7693 41.6895 45.3322 41.6895H39.3877C38.87 41.6895 38.4502 42.1092 38.4502 42.627V44.7681L33.4581 41.8198C33.3136 41.7345 33.1491 41.6895 32.9812 41.6895H17.656C17.2189 41.6895 16.8633 41.3339 16.8633 40.8967V22.8316C16.8633 22.3944 17.2189 22.0388 17.656 22.0388H20.25C20.7678 22.0388 21.1875 21.6191 21.1875 21.1013C21.1875 20.5835 20.7678 20.1638 20.25 20.1638H17.656C16.4106 20.1638 15.3617 21.0218 15.0694 22.1778H11.896C11.7283 22.1778 11.5637 22.2228 11.4193 22.3081L6.42703 25.2563V23.1153C6.42703 22.5975 6.00731 22.1778 5.48953 22.1778H2.66775C2.23059 22.1778 1.875 21.8222 1.875 21.385V3.31985C1.875 2.88269 2.23059 2.5271 2.66775 2.5271H30.3439C30.781 2.5271 31.1366 2.88269 31.1366 3.31985V15.1413C31.1366 15.659 31.5563 16.0788 32.0741 16.0788C32.5919 16.0788 33.0116 15.659 33.0116 15.1413V3.31985C33.0116 1.84882 31.8149 0.6521 30.3439 0.6521H2.66775C1.19672 0.6521 0 1.84882 0 3.31985V21.385C0 22.856 1.19672 24.0529 2.66775 24.0529H4.55203V26.8989C4.55203 27.2355 4.7325 27.5463 5.02481 27.7131C5.16891 27.7954 5.32922 27.8364 5.48953 27.8364C5.65444 27.8364 5.81934 27.7929 5.96625 27.7061L12.1522 24.0529H14.9883V40.8968C14.9883 42.3679 16.185 43.5646 17.656 43.5646H32.725L38.9109 47.2179C39.0579 47.3047 39.2227 47.3482 39.3877 47.3482C39.548 47.3482 39.7084 47.3072 39.8524 47.2249C40.1447 47.0581 40.3252 46.7473 40.3252 46.4107V43.5647H45.3322C46.8032 43.5647 47.9999 42.3679 47.9999 40.8969V22.8316C48 21.3605 46.8033 20.1638 45.3322 20.1638Z" fill="#A61916"/>
<path d="M24.4726 39.038C24.0171 39.038 23.5912 38.7921 23.3614 38.3963C23.2494 38.2033 23.1904 37.9791 23.1904 37.7474V35.4347C23.1904 34.7284 23.7648 34.1538 24.4708 34.1538C25.1406 34.1538 25.6127 33.977 25.9139 33.6131C26.282 33.1687 26.3828 32.477 26.3877 31.922H24.4722C23.5191 31.922 22.7437 31.1465 22.7437 30.1934V27.3062C22.7437 26.3531 23.5191 25.5776 24.4722 25.5776H29.531C30.4841 25.5776 31.2595 26.353 31.2595 27.3062V31.3425C31.2595 31.3558 31.2538 32.7278 31.2287 32.9761C30.9302 35.9178 28.6559 38.3479 25.6978 38.8856C25.2392 38.969 24.862 39.0182 24.5447 39.0361C24.5202 39.0375 24.4963 39.038 24.4726 39.038ZM24.4411 37.1638C24.4389 37.1639 24.4366 37.1641 24.4342 37.1642C24.4365 37.1641 24.4387 37.1639 24.4411 37.1638ZM25.0654 35.994V37.0913C25.1593 37.0764 25.2584 37.0597 25.3625 37.0407C27.5034 36.6516 29.1485 34.9023 29.3632 32.7869C29.374 32.638 29.3845 31.6087 29.3845 31.3424V27.4524H24.6187V30.0469H27.2517C27.7021 30.0469 28.0888 30.367 28.1728 30.8095C28.2204 31.0606 28.6025 33.306 27.3582 34.8089C26.9599 35.2899 26.2521 35.8508 25.0654 35.994Z" fill="#A61916"/>
<path d="M33.707 39.038C33.2514 39.038 32.8256 38.7921 32.5957 38.3963C32.4838 38.2033 32.4247 37.9791 32.4247 37.7474V35.4347C32.4247 34.7284 32.9992 34.1538 33.7052 34.1538C34.375 34.1538 34.8471 33.977 35.1483 33.6131C35.5163 33.1687 35.6172 32.477 35.6221 31.922H33.7066C32.7534 31.922 31.978 31.1465 31.978 30.1934V27.3062C31.978 26.3531 32.7534 25.5776 33.7065 25.5776H38.7652C39.7184 25.5776 40.4938 26.353 40.4938 27.3062V31.3425C40.4938 31.3558 40.4881 32.7278 40.463 32.9761C40.1645 35.9178 37.8902 38.3479 34.9321 38.8856C34.4736 38.969 34.0963 39.0182 33.779 39.0361C33.7546 39.0375 33.7307 39.038 33.707 39.038ZM33.6754 37.1638C33.6732 37.1639 33.671 37.1641 33.6686 37.1642C33.6709 37.1641 33.6731 37.1639 33.6754 37.1638ZM34.2997 35.994V37.0913C34.3937 37.0764 34.4928 37.0597 34.5968 37.0407C36.7378 36.6516 38.3829 34.9023 38.5976 32.7869C38.6084 32.638 38.6189 31.6087 38.6189 31.3424V27.4524H33.853V30.0469H36.486C36.9364 30.0469 37.3231 30.367 37.4071 30.8095C37.4547 31.0606 37.8368 33.306 36.5925 34.8089C36.1942 35.2899 35.4864 35.8508 34.2997 35.994Z" fill="#A61916"/>
<path d="M23.3464 18.6583H18.2876C17.3345 18.6583 16.5591 17.8829 16.5591 16.9297V12.8934C16.5591 12.8801 16.5648 11.5085 16.5899 11.2598C16.8884 8.31813 19.1627 5.88803 22.1208 5.35029C22.5797 5.26685 22.9569 5.21763 23.274 5.19982C23.2988 5.19832 23.3223 5.19775 23.346 5.19775C23.8018 5.19775 24.2276 5.44375 24.4573 5.83975C24.569 6.03194 24.6283 6.25638 24.6283 6.48832V8.80113C24.6283 9.50744 24.0538 10.082 23.3478 10.082C22.6801 10.082 22.2091 10.2576 21.9079 10.6189C21.5372 11.0634 21.4353 11.7541 21.4311 12.3139H23.3464C24.2996 12.3139 25.0751 13.0893 25.0751 14.0425V16.9297C25.075 17.8829 24.2995 18.6583 23.3464 18.6583ZM18.4341 16.7833H23.2V14.1889H20.567C20.1166 14.1889 19.7299 13.8688 19.6459 13.4263C19.5983 13.1752 19.2162 10.9297 20.4605 9.42691C20.8587 8.94597 21.5666 8.38507 22.7533 8.24172V7.14447C22.6594 7.15928 22.5603 7.17607 22.4563 7.195C20.3153 7.58416 18.6701 9.33344 18.4555 11.4488C18.4449 11.5944 18.4342 12.6349 18.4342 12.8933V16.7833H18.4341ZM23.384 7.07163C23.382 7.07172 23.3801 7.07182 23.3781 7.07191C23.3801 7.07182 23.382 7.07172 23.384 7.07163Z" fill="#A61916"/>
<path d="M14.112 18.6583H9.05327C8.10011 18.6583 7.32471 17.8829 7.32471 16.9297V12.8934C7.32471 12.8801 7.33043 11.5085 7.35564 11.2598C7.65414 8.31813 9.92843 5.88803 12.8865 5.35029C13.3454 5.26685 13.7226 5.21763 14.0397 5.19982C14.0645 5.19832 14.088 5.19775 14.1117 5.19775C14.5675 5.19775 14.9933 5.44375 15.2231 5.83975C15.3347 6.03194 15.394 6.25638 15.394 6.48832V8.80113C15.394 9.50744 14.8196 10.082 14.1135 10.082C13.4458 10.082 12.9748 10.2576 12.6736 10.6189C12.3029 11.0634 12.201 11.7541 12.1968 12.3139H14.1121C15.0653 12.3139 15.8408 13.0893 15.8408 14.0425V16.9297C15.8406 17.8829 15.0651 18.6583 14.112 18.6583ZM9.19971 16.7833H13.9656V14.1889H11.3326C10.8822 14.1889 10.4955 13.8688 10.4115 13.4263C10.3639 13.1752 9.98177 10.9297 11.2261 9.42691C11.6244 8.94597 12.3322 8.38507 13.5189 8.24172V7.14447C13.425 7.15928 13.3259 7.17607 13.2219 7.195C11.0809 7.58416 9.43568 9.33344 9.22108 11.4488C9.21049 11.5944 9.19971 12.6349 9.19971 12.8933V16.7833ZM14.1496 7.07163C14.1477 7.07172 14.1457 7.07182 14.1437 7.07191C14.1457 7.07182 14.1476 7.07172 14.1496 7.07163Z" fill="#A61916"/>
<path d="M24.5625 22.0387C24.5016 22.0387 24.4397 22.0321 24.3797 22.0199C24.3197 22.0087 24.2606 21.9899 24.2044 21.9665C24.1472 21.9431 24.0928 21.914 24.0422 21.8801C23.9906 21.8464 23.9428 21.807 23.8997 21.7639C23.8566 21.7208 23.8172 21.673 23.7834 21.6214C23.7497 21.5708 23.7206 21.5164 23.6972 21.4592C23.6738 21.403 23.655 21.3439 23.6437 21.2839C23.6316 21.2239 23.625 21.162 23.625 21.1011C23.625 21.0402 23.6316 20.9783 23.6437 20.9183C23.655 20.8583 23.6738 20.7992 23.6972 20.742C23.7206 20.6858 23.7497 20.6314 23.7834 20.5808C23.8172 20.5292 23.8566 20.4814 23.8997 20.4383C23.9428 20.3952 23.9906 20.3558 24.0422 20.322C24.0928 20.2883 24.1472 20.2592 24.2044 20.2358C24.2606 20.2123 24.3197 20.1936 24.3797 20.1823C24.5006 20.158 24.6244 20.158 24.7453 20.1823C24.8053 20.1936 24.8644 20.2123 24.9206 20.2358C24.9778 20.2592 25.0322 20.2883 25.0828 20.322C25.1344 20.3558 25.1822 20.3952 25.2253 20.4383C25.2684 20.4814 25.3078 20.5292 25.3416 20.5808C25.3753 20.6314 25.4044 20.6858 25.4278 20.742C25.4513 20.7992 25.47 20.8583 25.4822 20.9183C25.4944 20.9783 25.5 21.0402 25.5 21.1011C25.5 21.162 25.4944 21.2239 25.4822 21.2839C25.47 21.3439 25.4513 21.403 25.4278 21.4592C25.4044 21.5164 25.3753 21.5708 25.3416 21.6214C25.3078 21.673 25.2684 21.7208 25.2253 21.7639C25.1822 21.807 25.1344 21.8464 25.0828 21.8801C25.0322 21.9139 24.9778 21.9431 24.9206 21.9665C24.8644 21.9899 24.8053 22.0087 24.7453 22.0199C24.6853 22.0321 24.6234 22.0387 24.5625 22.0387Z" fill="#A61916"/>
</svg>
