<svg width="10" height="10" viewBox="0 0 10 10" fill="none" xmlns="http://www.w3.org/2000/svg">
<path d="M9.29688 5.3125H0.703125C0.53125 5.3125 0.390625 5.17188 0.390625 5C0.390625 4.82812 0.53125 4.6875 0.703125 4.6875H9.28125C9.45312 4.6875 9.59375 4.82812 9.59375 5C9.59375 5.17188 9.46875 5.3125 9.29688 5.3125Z" fill="#717171"/>
<path d="M5.85938 8.75C5.78125 8.75 5.70313 8.71875 5.64063 8.65625C5.51562 8.53125 5.51562 8.34375 5.64063 8.21875L8.85938 5L5.64063 1.78125C5.51562 1.65625 5.51562 1.46875 5.64063 1.34375C5.76563 1.21875 5.95313 1.21875 6.07813 1.34375L9.51563 4.78125C9.64063 4.90625 9.64063 5.09375 9.51563 5.21875L6.07813 8.65625C6.01563 8.71875 5.9375 8.75 5.85938 8.75Z" fill="#717171"/>
</svg>
