<svg width="10" height="10" viewBox="0 0 10 10" fill="none" xmlns="http://www.w3.org/2000/svg">
<path d="M0.703125 5.3125H9.29688C9.46875 5.3125 9.60938 5.17188 9.60938 5C9.60938 4.82812 9.46875 4.6875 9.29688 4.6875H0.71875C0.546875 4.6875 0.40625 4.82812 0.40625 5C0.40625 5.17188 0.53125 5.3125 0.703125 5.3125Z" fill="#717171"/>
<path d="M4.14062 8.75C4.21875 8.75 4.29687 8.71875 4.35937 8.65625C4.48438 8.53125 4.48438 8.34375 4.35937 8.21875L1.14062 5L4.35937 1.78125C4.48438 1.65625 4.48438 1.46875 4.35937 1.34375C4.23437 1.21875 4.04687 1.21875 3.92187 1.34375L0.484374 4.78125C0.359374 4.90625 0.359374 5.09375 0.484374 5.21875L3.92187 8.65625C3.98437 8.71875 4.0625 8.75 4.14062 8.75Z" fill="#717171"/>
</svg>
