<svg width="36" height="36" viewBox="0 0 36 36" fill="none" xmlns="http://www.w3.org/2000/svg">
<path d="M14.4145 12.6431L12.585 23.3797H15.5111L17.3422 12.6431H14.4145Z" fill="#878E85"/>
<path d="M10.1315 12.6551L7.26557 19.9772L6.96001 18.8716C6.39481 17.5395 4.79026 15.6264 2.90649 14.4207L5.52706 23.3744L8.62326 23.3691L13.2315 12.6528L10.1315 12.6551Z" fill="#878E85"/>
<path d="M5.84923 13.4235C5.67914 12.7695 5.18619 12.5746 4.57432 12.5513H0.0376301L0 12.765C3.53046 13.6215 5.86654 15.6851 6.83589 18.1664L5.84923 13.4235Z" fill="#878E85"/>
<path d="M23.2728 14.7013C24.2301 14.6862 24.924 14.8954 25.4629 15.1122L25.727 15.2364L26.1229 12.9093C25.5434 12.6918 24.635 12.4585 23.5016 12.4585C20.6101 12.4585 18.572 13.9148 18.5562 16.0017C18.5374 17.5438 20.008 18.4048 21.1188 18.9188C22.259 19.4457 22.6414 19.7806 22.6361 20.2509C22.6271 20.9697 21.727 21.2993 20.8863 21.2993C19.7145 21.2993 19.0921 21.1375 18.131 20.7371L17.754 20.5655L17.3423 22.9686C18.0272 23.2689 19.2908 23.527 20.6026 23.5406C23.6784 23.5406 25.6774 22.1016 25.6984 19.8716C25.7112 18.6517 24.9308 17.7207 23.2397 16.9568C22.2161 16.4586 21.59 16.1274 21.596 15.6247C21.596 15.1784 22.1273 14.7013 23.2728 14.7013Z" fill="#878E85"/>
<path d="M33.6323 12.655H31.3715C30.6693 12.655 30.147 12.8462 29.8384 13.5461L25.4937 23.3856H28.5665C28.5665 23.3856 29.0678 22.0626 29.1814 21.7728C29.5178 21.7728 32.5034 21.7773 32.9286 21.7773C33.0159 22.1521 33.2853 23.3856 33.2853 23.3856H36L33.6323 12.655ZM30.0236 19.5752C30.2644 18.9588 31.1893 16.5746 31.1893 16.5746C31.1735 16.6039 31.4279 15.9537 31.5792 15.5495L31.7764 16.4752C31.7764 16.4752 32.3371 19.0386 32.4545 19.5752H30.0236Z" fill="#878E85"/>
</svg>
