<svg width="232" height="66" viewBox="0 0 232 66" fill="none" xmlns="http://www.w3.org/2000/svg">
<path d="M10.9395 13.051H25.7555V17.6796H16.816V29.2738H23.8269V33.9024H16.816V51.8042H10.9395V13.051Z" fill="white"/>
<path d="M29.6807 13.051H36.0564C36.7824 13.051 37.5766 13.0813 38.4387 13.1418C39.3161 13.2023 40.1858 13.3536 41.048 13.5956C41.9253 13.8225 42.7648 14.1704 43.5665 14.6393C44.3833 15.1082 45.1018 15.751 45.722 16.5679C46.3573 17.3847 46.864 18.4132 47.2421 19.6536C47.6203 20.8788 47.8094 22.3687 47.8094 24.1234V25.099C47.8094 28.0486 47.3858 30.4536 46.5388 32.3142C45.6917 34.1595 44.4438 35.4906 42.7951 36.3074L49.0119 51.8042H42.7951L37.6446 37.3058H35.4438V51.8042H29.6807V13.051ZM36.3287 33.0629C37.3572 33.0629 38.227 32.9494 38.9379 32.7226C39.6488 32.4957 40.2236 32.1175 40.6623 31.5881C41.1009 31.0436 41.4186 30.3326 41.6152 29.4553C41.8119 28.5629 41.9102 27.4662 41.9102 26.1654V23.1023C41.9102 22.104 41.8194 21.2418 41.6379 20.5158C41.4564 19.7897 41.1463 19.1922 40.7077 18.7233C40.2841 18.2544 39.7169 17.9065 39.006 17.6796C38.295 17.4527 37.4026 17.3393 36.3287 17.3393H35.4438V33.0629H36.3287Z" fill="white"/>
<path d="M53.459 13.051H59.3355V51.8042H53.459V13.051Z" fill="white"/>
<path d="M73.8112 52.1672C73.3574 52.1672 72.828 52.1142 72.2229 52.0084C71.6179 51.9176 70.9902 51.7134 70.3397 51.3958C69.7044 51.0781 69.0767 50.6319 68.4565 50.0571C67.8364 49.4672 67.2767 48.6957 66.7775 47.7428C66.2935 46.7747 65.9002 45.5949 65.5977 44.2033C65.2952 42.7966 65.1439 41.1251 65.1439 39.189V25.462C65.1439 23.5107 65.3027 21.8469 65.6204 20.4704C65.938 19.0788 66.3616 17.9141 66.891 16.9763C67.4204 16.0233 68.0254 15.267 68.7061 14.7073C69.4019 14.1477 70.1204 13.7241 70.8616 13.4367C71.6028 13.1342 72.3364 12.9376 73.0624 12.8468C73.7885 12.7561 74.4616 12.7107 75.0818 12.7107C76.6549 12.7107 77.9784 12.93 79.0524 13.3687C80.1415 13.7922 81.0188 14.3821 81.6843 15.1384C82.365 15.8796 82.8491 16.7494 83.1364 17.7477C83.439 18.746 83.5902 19.8048 83.5902 20.9242C83.5902 21.7561 83.5373 22.5275 83.4314 23.2385C83.3406 23.9343 83.2121 24.7057 83.0457 25.5528H78.349V23.7149C78.349 19.4645 77.207 17.3393 74.923 17.3393C74.3028 17.3393 73.7658 17.4452 73.312 17.6569C72.8582 17.8687 72.4801 18.2317 72.1776 18.746C71.875 19.2452 71.6482 19.9107 71.4969 20.7427C71.3608 21.5746 71.2927 22.6107 71.2927 23.8511V41.4125C71.2927 42.6226 71.3608 43.6285 71.4969 44.4302C71.6482 45.2319 71.8675 45.8747 72.1549 46.3588C72.4574 46.8428 72.828 47.1907 73.2667 47.4025C73.7204 47.5991 74.2574 47.6974 74.8776 47.6974C75.528 47.6974 76.0877 47.531 76.5566 47.1983C77.0255 46.8504 77.4112 46.3814 77.7137 45.7915C78.0163 45.2016 78.2356 44.5058 78.3717 43.7041C78.523 42.9024 78.5986 42.0327 78.5986 41.0949V36.0352H75.5809V32.178H84.3163V51.8042H80.4137L79.7784 48.1285C79.0373 49.5655 78.1826 50.6016 77.2146 51.2369C76.2616 51.8571 75.1272 52.1672 73.8112 52.1672Z" fill="white"/>
<path d="M98.3382 52.1445C97.718 52.1445 97.0449 52.0916 96.3189 51.9857C95.5928 51.8949 94.8743 51.6907 94.1634 51.3731C93.4525 51.0554 92.7642 50.6092 92.0987 50.0344C91.4482 49.4445 90.8659 48.6731 90.3516 47.7201C89.8524 46.7672 89.4516 45.5949 89.1491 44.2033C88.8466 42.7966 88.6953 41.1251 88.6953 39.189V25.462C88.6953 23.5107 88.8466 21.8469 89.1491 20.4704C89.4667 19.0788 89.8827 17.9141 90.397 16.9763C90.9113 16.0233 91.4936 15.267 92.1441 14.7073C92.8096 14.1477 93.4978 13.7241 94.2088 13.4367C94.9348 13.1342 95.6533 12.9376 96.3642 12.8468C97.0752 12.7561 97.7332 12.7107 98.3382 12.7107C98.913 12.7107 99.5483 12.7561 100.244 12.8468C100.955 12.9225 101.658 13.104 102.354 13.3914C103.065 13.6636 103.753 14.0796 104.419 14.6393C105.084 15.1838 105.674 15.9326 106.189 16.8855C106.703 17.8233 107.111 18.9956 107.414 20.4023C107.732 21.7939 107.89 23.4805 107.89 25.462V39.189C107.89 41.11 107.732 42.7663 107.414 44.1579C107.096 45.5344 106.68 46.7067 106.166 47.6747C105.652 48.6277 105.054 49.3991 104.374 49.989C103.708 50.5638 103.02 51.0176 102.309 51.3504C101.613 51.668 100.917 51.8798 100.221 51.9857C99.5256 52.0916 98.8979 52.1445 98.3382 52.1445ZM98.3382 47.7201C98.913 47.7201 99.4122 47.6218 99.8357 47.4251C100.274 47.2285 100.63 46.8882 100.902 46.4041C101.189 45.9201 101.401 45.2848 101.537 44.4982C101.689 43.6966 101.764 42.6907 101.764 41.4806V23.8511C101.764 22.6107 101.689 21.5746 101.537 20.7427C101.401 19.9107 101.189 19.2452 100.902 18.746C100.63 18.2317 100.274 17.8687 99.8357 17.6569C99.4122 17.4452 98.913 17.3393 98.3382 17.3393C97.7483 17.3393 97.234 17.4452 96.7953 17.6569C96.3567 17.8687 95.9936 18.2317 95.7063 18.746C95.4189 19.2452 95.1995 19.9107 95.0483 20.7427C94.9121 21.5746 94.8441 22.6107 94.8441 23.8511V41.4806C94.8441 42.6907 94.9121 43.6966 95.0483 44.4982C95.1995 45.2848 95.4189 45.9201 95.7063 46.4041C95.9936 46.8882 96.3567 47.2285 96.7953 47.4251C97.234 47.6218 97.7483 47.7201 98.3382 47.7201Z" fill="white"/>
<path d="M113.449 13.051H119.394C120.271 13.051 121.179 13.0813 122.116 13.1418C123.054 13.2023 123.969 13.3309 124.862 13.5275C125.754 13.7241 126.601 14.0191 127.403 14.4124C128.205 14.7905 128.901 15.3048 129.49 15.9552C130.095 16.6057 130.572 17.4149 130.92 18.383C131.283 19.3359 131.464 20.4855 131.464 21.8317V23.7149C131.464 24.7435 131.313 25.6889 131.011 26.5511C130.723 27.4133 130.338 28.1772 129.853 28.8427C129.369 29.4931 128.817 30.0377 128.197 30.4763C127.577 30.8999 126.942 31.1873 126.291 31.3385V31.52C128.212 31.8679 129.657 32.7831 130.625 34.2654C131.608 35.7327 132.1 37.6159 132.1 39.915V41.889C132.1 43.2957 131.941 44.5209 131.623 45.5646C131.321 46.5932 130.89 47.4781 130.33 48.2193C129.77 48.9453 129.105 49.5428 128.333 50.0117C127.562 50.4806 126.715 50.8512 125.792 51.1235C124.869 51.3806 123.886 51.5621 122.843 51.668C121.799 51.7588 120.725 51.8042 119.621 51.8042H113.449V13.051ZM120.347 29.6368C121.133 29.6368 121.852 29.5461 122.502 29.3646C123.153 29.1679 123.705 28.873 124.158 28.4797C124.627 28.0713 124.983 27.5494 125.225 26.9141C125.482 26.2637 125.611 25.4847 125.611 24.5771V22.9889C125.611 22.0813 125.52 21.2796 125.338 20.5838C125.157 19.888 124.854 19.2981 124.431 18.8141C124.022 18.33 123.478 17.967 122.797 17.725C122.132 17.4679 121.315 17.3393 120.347 17.3393H119.212V29.6368H120.347ZM120.891 47.7201C121.678 47.7201 122.389 47.6218 123.024 47.4251C123.674 47.2134 124.227 46.8957 124.68 46.4722C125.149 46.0335 125.505 45.4814 125.747 44.8159C126.004 44.1503 126.132 43.3638 126.132 42.4562V39.4386C126.132 38.531 126.042 37.7293 125.86 37.0335C125.679 36.3226 125.376 35.7327 124.953 35.2637C124.544 34.7797 124.007 34.4167 123.342 34.1747C122.676 33.9175 121.859 33.7889 120.891 33.7889H119.212V47.7201H120.891Z" fill="white"/>
<path d="M145.804 52.1445C145.184 52.1445 144.511 52.0916 143.785 51.9857C143.059 51.8949 142.34 51.6907 141.629 51.3731C140.918 51.0554 140.23 50.6092 139.564 50.0344C138.914 49.4445 138.332 48.6731 137.817 47.7201C137.318 46.7672 136.917 45.5949 136.615 44.2033C136.312 42.7966 136.161 41.1251 136.161 39.189V25.462C136.161 23.5107 136.312 21.8469 136.615 20.4704C136.933 19.0788 137.348 17.9141 137.863 16.9763C138.377 16.0233 138.959 15.267 139.61 14.7073C140.275 14.1477 140.964 13.7241 141.675 13.4367C142.401 13.1342 143.119 12.9376 143.83 12.8468C144.541 12.7561 145.199 12.7107 145.804 12.7107C146.379 12.7107 147.014 12.7561 147.71 12.8468C148.421 12.9225 149.124 13.104 149.82 13.3914C150.531 13.6636 151.219 14.0796 151.885 14.6393C152.55 15.1838 153.14 15.9326 153.654 16.8855C154.169 17.8233 154.577 18.9956 154.88 20.4023C155.197 21.7939 155.356 23.4805 155.356 25.462V39.189C155.356 41.11 155.197 42.7663 154.88 44.1579C154.562 45.5344 154.146 46.7067 153.632 47.6747C153.117 48.6277 152.52 49.3991 151.839 49.989C151.174 50.5638 150.486 51.0176 149.775 51.3504C149.079 51.668 148.383 51.8798 147.687 51.9857C146.991 52.0916 146.364 52.1445 145.804 52.1445ZM145.804 47.7201C146.379 47.7201 146.878 47.6218 147.301 47.4251C147.74 47.2285 148.096 46.8882 148.368 46.4041C148.655 45.9201 148.867 45.2848 149.003 44.4982C149.154 43.6966 149.23 42.6907 149.23 41.4806V23.8511C149.23 22.6107 149.154 21.5746 149.003 20.7427C148.867 19.9107 148.655 19.2452 148.368 18.746C148.096 18.2317 147.74 17.8687 147.301 17.6569C146.878 17.4452 146.379 17.3393 145.804 17.3393C145.214 17.3393 144.7 17.4452 144.261 17.6569C143.822 17.8687 143.459 18.2317 143.172 18.746C142.885 19.2452 142.665 19.9107 142.514 20.7427C142.378 21.5746 142.31 22.6107 142.31 23.8511V41.4806C142.31 42.6907 142.378 43.6966 142.514 44.4982C142.665 45.2848 142.885 45.9201 143.172 46.4041C143.459 46.8882 143.822 47.2285 144.261 47.4251C144.7 47.6218 145.214 47.7201 145.804 47.7201Z" fill="white"/>
<path d="M165.43 32.2915L158.351 13.051H164.636L168.244 25.4393H168.47L172.078 13.051H178.159L171.057 32.3142L178.159 51.8042H172.101L168.425 39.3478H168.039L164.205 51.8042H158.351L165.43 32.2915Z" fill="white"/>
<path d="M180.995 47.7428C180.995 46.1394 181.313 44.9898 181.948 44.294C182.583 43.5982 183.445 43.2503 184.534 43.2503C185.669 43.2503 186.546 43.6209 187.166 44.3621C187.787 45.1033 188.097 46.2302 188.097 47.7428C188.097 49.1344 187.779 50.2159 187.144 50.9874C186.523 51.7437 185.646 52.1218 184.512 52.1218C183.438 52.1218 182.583 51.7512 181.948 51.01C181.313 50.2689 180.995 49.1798 180.995 47.7428Z" fill="white"/>
<path d="M193.633 13.051H199.577C200.455 13.051 201.362 13.0813 202.3 13.1418C203.238 13.2023 204.153 13.3309 205.045 13.5275C205.938 13.7241 206.785 14.0191 207.587 14.4124C208.388 14.7905 209.084 15.3048 209.674 15.9552C210.279 16.6057 210.756 17.4149 211.103 18.383C211.466 19.3359 211.648 20.4855 211.648 21.8317V23.7149C211.648 24.7435 211.497 25.6889 211.194 26.5511C210.907 27.4133 210.521 28.1772 210.037 28.8427C209.553 29.4931 209.001 30.0377 208.381 30.4763C207.761 30.8999 207.125 31.1873 206.475 31.3385V31.52C208.396 31.8679 209.84 32.7831 210.808 34.2654C211.792 35.7327 212.283 37.6159 212.283 39.915V41.889C212.283 43.2957 212.124 44.5209 211.807 45.5646C211.504 46.5932 211.073 47.4781 210.514 48.2193C209.954 48.9453 209.288 49.5428 208.517 50.0117C207.745 50.4806 206.898 50.8512 205.976 51.1235C205.053 51.3806 204.07 51.5621 203.026 51.668C201.982 51.7588 200.908 51.8042 199.804 51.8042H193.633V13.051ZM200.53 29.6368C201.317 29.6368 202.035 29.5461 202.686 29.3646C203.336 29.1679 203.888 28.873 204.342 28.4797C204.811 28.0713 205.166 27.5494 205.408 26.9141C205.666 26.2637 205.794 25.4847 205.794 24.5771V22.9889C205.794 22.0813 205.703 21.2796 205.522 20.5838C205.34 19.888 205.038 19.2981 204.614 18.8141C204.206 18.33 203.661 17.967 202.981 17.725C202.315 17.4679 201.498 17.3393 200.53 17.3393H199.396V29.6368H200.53ZM201.075 47.7201C201.861 47.7201 202.572 47.6218 203.208 47.4251C203.858 47.2134 204.41 46.8957 204.864 46.4722C205.333 46.0335 205.688 45.4814 205.93 44.8159C206.187 44.1503 206.316 43.3638 206.316 42.4562V39.4386C206.316 38.531 206.225 37.7293 206.044 37.0335C205.862 36.3226 205.56 35.7327 205.136 35.2637C204.728 34.7797 204.191 34.4167 203.525 34.1747C202.86 33.9175 202.043 33.7889 201.075 33.7889H199.396V47.7201H201.075Z" fill="white"/>
<path d="M217.411 13.051H231.773V17.6796H223.288V29.2738H229.845V33.9024H223.288V47.1756H232V51.8042H217.411V13.051Z" fill="white"/>
<path d="M184.27 56.3005V64.2511H2V2H184.27V38.5387" stroke="white" stroke-width="3.46" stroke-miterlimit="10"/>
</svg>
