<svg width="25" height="24" viewBox="0 0 25 24" fill="none" xmlns="http://www.w3.org/2000/svg">
<path d="M12.4072 0C5.79045 0 0.407227 5.38323 0.407227 12C0.407227 18.6163 5.79045 24 12.4072 24C19.0235 24 24.4072 18.6163 24.4072 12C24.4072 5.38323 19.0245 0 12.4072 0ZM17.7605 9.25352C17.7658 9.37243 17.7687 9.49231 17.7687 9.61218C17.7687 13.2621 14.9913 17.4693 9.90968 17.4693C8.34987 17.4693 6.89784 17.0135 5.6759 16.2294C5.89196 16.2551 6.11189 16.2681 6.33472 16.2681C7.62917 16.2681 8.8197 15.8263 9.76516 15.0858C8.55675 15.0636 7.53637 14.265 7.18496 13.1673C7.35317 13.1992 7.5267 13.2171 7.70409 13.2171C7.95593 13.2171 8.20051 13.1842 8.43204 13.1209C7.16852 12.8676 6.21678 11.7516 6.21678 10.4126C6.21678 10.401 6.21678 10.3889 6.21726 10.3778C6.58946 10.5842 7.0153 10.7089 7.46773 10.723C6.72721 10.2285 6.2395 9.38258 6.2395 8.42456C6.2395 7.91799 6.37532 7.44333 6.61314 7.03537C7.97478 8.70684 10.0107 9.80601 12.3057 9.92202C12.2584 9.71949 12.2347 9.50922 12.2347 9.29219C12.2347 7.76718 13.4711 6.53025 14.9961 6.53025C15.7908 6.53025 16.5076 6.86571 17.0122 7.40224C17.6421 7.2785 18.2318 7.04938 18.7669 6.73181C18.559 7.3771 18.1225 7.91799 17.5507 8.26021C18.11 8.19351 18.6436 8.0456 19.1371 7.82567C18.7688 8.37864 18.3004 8.86538 17.7605 9.25352Z" fill="white"/>
</svg>
