<svg width="25" height="24" viewBox="0 0 25 24" fill="none" xmlns="http://www.w3.org/2000/svg">
<path d="M15.0937 10.2944C14.0666 10.2944 13.6078 10.859 13.3512 11.2554V10.4317H11.4167C11.4419 10.9769 11.4167 16.2519 11.4167 16.2519H13.3512V13.0003C13.3512 12.8268 13.3623 12.6523 13.4145 12.5281C13.5547 12.18 13.8727 11.8199 14.4073 11.8199C15.1072 11.8199 15.3871 12.3536 15.3871 13.1366V16.2504H17.3215H17.322V12.9128C17.321 11.1263 16.3664 10.2944 15.0937 10.2944ZM13.3497 11.2757H13.3376C13.3415 11.2689 13.3473 11.2626 13.3497 11.2558V11.2757Z" fill="white"/>
<path d="M8.41016 10.4321H10.3446V16.2523H8.41016V10.4321Z" fill="white"/>
<path d="M12.907 0C6.29021 0 0.906982 5.38323 0.906982 12C0.906982 18.6163 6.29021 24 12.907 24C19.5233 24 24.907 18.6163 24.907 12C24.907 5.38323 19.5242 0 12.907 0ZM19.2705 17.4277C19.2705 17.9381 18.847 18.3509 18.3236 18.3509H7.40871C6.88668 18.3509 6.46277 17.9381 6.46277 17.4277V6.38573C6.46277 5.87578 6.88668 5.4625 7.40871 5.4625H18.3236C18.8466 5.4625 19.2705 5.87626 19.2705 6.38573V17.4277Z" fill="white"/>
<path d="M9.39048 7.62598C8.72924 7.62598 8.29614 8.06004 8.29614 8.63137C8.29614 9.18966 8.71619 9.63677 9.36486 9.63677H9.37743C10.0522 9.63677 10.4722 9.18966 10.4722 8.63137C10.4592 8.06052 10.0527 7.62598 9.39048 7.62598Z" fill="white"/>
</svg>
