<svg width="87" height="20" viewBox="0 0 87 20" fill="none" xmlns="http://www.w3.org/2000/svg">
<path d="M17.5488 5.89062L19.375 11.0469L21.1914 5.89062H23.1152V13H21.6455V11.0566L21.792 7.70215L19.873 13H18.8672L16.9531 7.70703L17.0996 11.0566V13H15.6348V5.89062H17.5488ZM27.1633 13C27.0982 12.873 27.051 12.7152 27.0217 12.5264C26.6799 12.9072 26.2355 13.0977 25.6887 13.0977C25.1711 13.0977 24.7414 12.9479 24.3996 12.6484C24.0611 12.349 23.8918 11.9714 23.8918 11.5156C23.8918 10.9557 24.0985 10.526 24.5119 10.2266C24.9286 9.92708 25.5292 9.77572 26.3137 9.77246H26.9631V9.46973C26.9631 9.22559 26.8996 9.03027 26.7727 8.88379C26.649 8.7373 26.452 8.66406 26.1818 8.66406C25.9442 8.66406 25.757 8.72103 25.6203 8.83496C25.4868 8.94889 25.4201 9.10514 25.4201 9.30371H24.009C24.009 8.99772 24.1034 8.71452 24.2922 8.4541C24.481 8.19368 24.7479 7.99023 25.093 7.84375C25.438 7.69401 25.8254 7.61914 26.2551 7.61914C26.9061 7.61914 27.4221 7.78353 27.8029 8.1123C28.187 8.43783 28.3791 8.89681 28.3791 9.48926V11.7793C28.3824 12.2806 28.4523 12.6598 28.5891 12.917V13H27.1633ZM25.9963 12.0186C26.2046 12.0186 26.3967 11.973 26.5725 11.8818C26.7482 11.7874 26.8785 11.6621 26.9631 11.5059V10.5977H26.4357C25.7294 10.5977 25.3534 10.8418 25.3078 11.3301L25.3029 11.4131C25.3029 11.5889 25.3648 11.7337 25.4885 11.8477C25.6122 11.9616 25.7814 12.0186 25.9963 12.0186ZM32.3246 13C32.2595 12.873 32.2123 12.7152 32.183 12.5264C31.8412 12.9072 31.3969 13.0977 30.85 13.0977C30.3324 13.0977 29.9027 12.9479 29.5609 12.6484C29.2224 12.349 29.0531 11.9714 29.0531 11.5156C29.0531 10.9557 29.2598 10.526 29.6732 10.2266C30.0899 9.92708 30.6905 9.77572 31.475 9.77246H32.1244V9.46973C32.1244 9.22559 32.0609 9.03027 31.934 8.88379C31.8103 8.7373 31.6133 8.66406 31.3432 8.66406C31.1055 8.66406 30.9184 8.72103 30.7816 8.83496C30.6482 8.94889 30.5814 9.10514 30.5814 9.30371H29.1703C29.1703 8.99772 29.2647 8.71452 29.4535 8.4541C29.6423 8.19368 29.9092 7.99023 30.2543 7.84375C30.5993 7.69401 30.9867 7.61914 31.4164 7.61914C32.0674 7.61914 32.5834 7.78353 32.9643 8.1123C33.3484 8.43783 33.5404 8.89681 33.5404 9.48926V11.7793C33.5437 12.2806 33.6137 12.6598 33.7504 12.917V13H32.3246ZM31.1576 12.0186C31.366 12.0186 31.558 11.973 31.7338 11.8818C31.9096 11.7874 32.0398 11.6621 32.1244 11.5059V10.5977H31.5971C30.8907 10.5977 30.5147 10.8418 30.4691 11.3301L30.4643 11.4131C30.4643 11.5889 30.5261 11.7337 30.6498 11.8477C30.7735 11.9616 30.9428 12.0186 31.1576 12.0186ZM35.9137 13H34.4977V5.5H35.9137V13ZM38.5701 6.41797V7.7168H39.4734V8.75195H38.5701V11.3887C38.5701 11.584 38.6076 11.724 38.6824 11.8086C38.7573 11.8932 38.9005 11.9355 39.1121 11.9355C39.2684 11.9355 39.4067 11.9242 39.5271 11.9014V12.9707C39.2505 13.0553 38.9656 13.0977 38.6727 13.0977C37.6831 13.0977 37.1785 12.598 37.159 11.5986V8.75195H36.3875V7.7168H37.159V6.41797H38.5701ZM41.5488 13H40.1328V7.7168H41.5488V13ZM40.0498 6.34961C40.0498 6.13802 40.1198 5.96387 40.2598 5.82715C40.403 5.69043 40.5967 5.62207 40.8408 5.62207C41.0817 5.62207 41.2738 5.69043 41.417 5.82715C41.5602 5.96387 41.6318 6.13802 41.6318 6.34961C41.6318 6.56445 41.5586 6.74023 41.4121 6.87695C41.2689 7.01367 41.0785 7.08203 40.8408 7.08203C40.6032 7.08203 40.4111 7.01367 40.2646 6.87695C40.1214 6.74023 40.0498 6.56445 40.0498 6.34961ZM44.01 7.7168V13.2881C44.01 13.8708 43.8553 14.3232 43.5461 14.6455C43.2368 14.971 42.7909 15.1338 42.2082 15.1338C41.9641 15.1338 41.7313 15.1061 41.51 15.0508V13.9326C41.6792 13.9619 41.8273 13.9766 41.9543 13.9766C42.3807 13.9766 42.5939 13.7503 42.5939 13.2979V7.7168H44.01ZM42.4816 6.34961C42.4816 6.13802 42.5516 5.96387 42.6916 5.82715C42.8348 5.69043 43.0285 5.62207 43.2727 5.62207C43.5168 5.62207 43.7089 5.69043 43.8488 5.82715C43.9921 5.96387 44.0637 6.13802 44.0637 6.34961C44.0637 6.56445 43.9904 6.74023 43.8439 6.87695C43.7007 7.01367 43.5103 7.08203 43.2727 7.08203C43.035 7.08203 42.843 7.01367 42.6965 6.87695C42.5533 6.74023 42.4816 6.56445 42.4816 6.34961ZM44.6938 10.3193C44.6938 9.49577 44.8777 8.83984 45.2455 8.35156C45.6166 7.86328 46.1228 7.61914 46.7641 7.61914C47.2784 7.61914 47.7032 7.8112 48.0385 8.19531V5.5H49.4545V13H48.1801L48.1117 12.4385C47.7602 12.8779 47.3077 13.0977 46.7543 13.0977C46.1326 13.0977 45.6329 12.8535 45.2553 12.3652C44.8809 11.8737 44.6938 11.1917 44.6938 10.3193ZM46.1049 10.4219C46.1049 10.9167 46.1911 11.2959 46.3637 11.5596C46.5362 11.8232 46.7868 11.9551 47.1156 11.9551C47.5518 11.9551 47.8594 11.7712 48.0385 11.4033V9.31836C47.8627 8.95052 47.5583 8.7666 47.1254 8.7666C46.4451 8.7666 46.1049 9.31836 46.1049 10.4219ZM52.5455 11.96C52.8059 11.96 53.0175 11.8883 53.1803 11.7451C53.343 11.6019 53.4277 11.4115 53.4342 11.1738H54.7574C54.7542 11.5319 54.6565 11.8607 54.4645 12.1602C54.2724 12.4564 54.0087 12.6875 53.6734 12.8535C53.3414 13.0163 52.9736 13.0977 52.5699 13.0977C51.8147 13.0977 51.219 12.8584 50.7828 12.3799C50.3466 11.8981 50.1285 11.234 50.1285 10.3877V10.2949C50.1285 9.48112 50.345 8.83171 50.7779 8.34668C51.2109 7.86165 51.8049 7.61914 52.5602 7.61914C53.221 7.61914 53.7499 7.80794 54.1471 8.18555C54.5475 8.5599 54.7509 9.05957 54.7574 9.68457H53.4342C53.4277 9.41113 53.343 9.18978 53.1803 9.02051C53.0175 8.84798 52.8027 8.76172 52.5357 8.76172C52.207 8.76172 51.9579 8.88216 51.7887 9.12305C51.6227 9.36068 51.5396 9.74805 51.5396 10.2852V10.4316C51.5396 10.9753 51.6227 11.3659 51.7887 11.6035C51.9547 11.8411 52.207 11.96 52.5455 11.96ZM56.74 8.29297C57.1144 7.84375 57.5848 7.61914 58.1512 7.61914C59.297 7.61914 59.8781 8.28483 59.8943 9.61621V13H58.4832V9.65527C58.4832 9.35254 58.4181 9.12956 58.2879 8.98633C58.1577 8.83984 57.9412 8.7666 57.6385 8.7666C57.2251 8.7666 56.9256 8.92611 56.74 9.24512V13H55.3289V5.5H56.74V8.29297ZM63.1904 13.0977C62.4157 13.0977 61.7842 12.86 61.2959 12.3848C60.8109 11.9095 60.5684 11.2764 60.5684 10.4854V10.3486C60.5684 9.81803 60.6709 9.3444 60.876 8.92773C61.0811 8.50781 61.3708 8.18555 61.7451 7.96094C62.1227 7.73307 62.5524 7.61914 63.0342 7.61914C63.7568 7.61914 64.3249 7.84701 64.7383 8.30273C65.1549 8.75846 65.3633 9.40462 65.3633 10.2412V10.8174H61.999C62.0446 11.1624 62.1813 11.4391 62.4092 11.6475C62.6403 11.8558 62.9316 11.96 63.2832 11.96C63.8268 11.96 64.2516 11.763 64.5576 11.3691L65.251 12.1455C65.0394 12.445 64.7529 12.6794 64.3916 12.8486C64.0303 13.0146 63.6299 13.0977 63.1904 13.0977ZM63.0293 8.76172C62.7493 8.76172 62.5215 8.85612 62.3457 9.04492C62.1732 9.23372 62.0625 9.50391 62.0137 9.85547H63.9766V9.74316C63.9701 9.43066 63.8854 9.18978 63.7227 9.02051C63.5599 8.84798 63.3288 8.76172 63.0293 8.76172ZM65.7492 10.3096C65.7492 9.47949 65.9331 8.82357 66.301 8.3418C66.6721 7.86003 67.1799 7.61914 67.8244 7.61914C68.3908 7.61914 68.8417 7.83561 69.177 8.26855L69.2697 7.7168H70.51V15.0312H69.0939V12.5459C68.7684 12.9137 68.342 13.0977 67.8146 13.0977C67.1864 13.0977 66.6851 12.8535 66.3107 12.3652C65.9364 11.877 65.7492 11.1917 65.7492 10.3096ZM67.1604 10.4121C67.1604 10.9167 67.2482 11.3008 67.424 11.5645C67.6031 11.8281 67.8537 11.96 68.176 11.96C68.6089 11.96 68.9149 11.7874 69.0939 11.4424V9.25977C68.9182 8.92773 68.6154 8.76172 68.1857 8.76172C67.8602 8.76172 67.6079 8.89355 67.4289 9.15723C67.2499 9.4209 67.1604 9.83919 67.1604 10.4121ZM74.5873 12.4629C74.239 12.8861 73.7572 13.0977 73.142 13.0977C72.5756 13.0977 72.1426 12.9349 71.8432 12.6094C71.5469 12.2839 71.3956 11.807 71.3891 11.1787V7.7168H72.8002V11.1299C72.8002 11.68 73.0508 11.9551 73.5521 11.9551C74.0307 11.9551 74.3594 11.7891 74.5385 11.457V7.7168H75.9545V13H74.6264L74.5873 12.4629ZM79.2506 13.0977C78.4758 13.0977 77.8443 12.86 77.3561 12.3848C76.871 11.9095 76.6285 11.2764 76.6285 10.4854V10.3486C76.6285 9.81803 76.7311 9.3444 76.9361 8.92773C77.1412 8.50781 77.4309 8.18555 77.8053 7.96094C78.1829 7.73307 78.6126 7.61914 79.0943 7.61914C79.817 7.61914 80.385 7.84701 80.7984 8.30273C81.2151 8.75846 81.4234 9.40462 81.4234 10.2412V10.8174H78.0592C78.1048 11.1624 78.2415 11.4391 78.4693 11.6475C78.7005 11.8558 78.9918 11.96 79.3434 11.96C79.887 11.96 80.3118 11.763 80.6178 11.3691L81.3111 12.1455C81.0995 12.445 80.8131 12.6794 80.4518 12.8486C80.0904 13.0146 79.69 13.0977 79.2506 13.0977ZM79.0895 8.76172C78.8095 8.76172 78.5816 8.85612 78.4059 9.04492C78.2333 9.23372 78.1227 9.50391 78.0738 9.85547H80.0367V9.74316C80.0302 9.43066 79.9456 9.18978 79.7828 9.02051C79.6201 8.84798 79.3889 8.76172 79.0895 8.76172ZM84.8904 11.54C84.8904 11.3675 84.8042 11.2324 84.6316 11.1348C84.4624 11.0339 84.1889 10.9443 83.8113 10.8662C82.5548 10.6025 81.9266 10.0687 81.9266 9.26465C81.9266 8.7959 82.1202 8.40527 82.5076 8.09277C82.8982 7.77702 83.4077 7.61914 84.0359 7.61914C84.7065 7.61914 85.242 7.77702 85.6424 8.09277C86.046 8.40853 86.2478 8.81868 86.2478 9.32324H84.8367C84.8367 9.12142 84.7716 8.9554 84.6414 8.8252C84.5112 8.69173 84.3077 8.625 84.0311 8.625C83.7934 8.625 83.6095 8.67871 83.4793 8.78613C83.3491 8.89355 83.284 9.03027 83.284 9.19629C83.284 9.35254 83.3572 9.47949 83.5037 9.57715C83.6534 9.67155 83.9041 9.75456 84.2557 9.82617C84.6072 9.89453 84.9034 9.97266 85.1443 10.0605C85.8898 10.334 86.2625 10.8076 86.2625 11.4814C86.2625 11.9632 86.0558 12.3538 85.6424 12.6533C85.229 12.9495 84.6951 13.0977 84.0408 13.0977C83.5981 13.0977 83.2042 13.0195 82.8592 12.8633C82.5174 12.7038 82.2488 12.4873 82.0535 12.2139C81.8582 11.9372 81.7605 11.6393 81.7605 11.3203H83.0984C83.1115 11.571 83.2042 11.763 83.3768 11.8965C83.5493 12.0299 83.7804 12.0967 84.0701 12.0967C84.3403 12.0967 84.5437 12.0462 84.6805 11.9453C84.8204 11.8411 84.8904 11.7061 84.8904 11.54Z" fill="#858B8E"/>
<g clip-path="url(#clip0)">
<path d="M11.6878 13.203L6.98242 8.4975L1.48492 3H1.05529L0.967559 3.22291C0.73602 3.81129 0.63709 4.41307 0.681504 4.96312C0.732129 5.59013 0.970324 6.13296 1.37038 6.53302L5.66202 10.8247L6.22808 10.2586L10.1957 14.6951C10.5904 15.0898 11.2697 15.1133 11.6878 14.6951C12.0993 14.2837 12.0993 13.6144 11.6878 13.203Z" fill="#858B8E"/>
<path d="M3.67339 9.83057L0.312193 13.1918C-0.0991817 13.6031 -0.0991817 14.2725 0.312193 14.6839C0.70299 15.0747 1.37905 15.1092 1.80434 14.6839L5.16556 11.3227L3.67339 9.83057Z" fill="#858B8E"/>
<path d="M11.4903 4.99811L9.58365 6.90475L9.08623 6.40736L10.9929 4.50069L10.4955 4.0033L8.58886 5.90994L8.09147 5.41255L9.99814 3.50591L9.50077 3.00854L7.01382 5.4955C6.70957 5.79974 6.52791 6.20371 6.50222 6.63304C6.49573 6.74181 6.47107 6.8488 6.43018 6.95057L8.0457 8.56609C8.14746 8.52515 8.25448 8.50051 8.36323 8.49402C8.79256 8.46841 9.19653 8.28669 9.50077 7.98245L11.9877 5.49552L11.4903 4.99811Z" fill="#858B8E"/>
</g>
<defs>
<clipPath id="clip0">
<rect width="12" height="12" fill="white" transform="translate(0 3)"/>
</clipPath>
</defs>
</svg>
