<svg width="28" height="27" viewBox="0 0 28 27" fill="none" xmlns="http://www.w3.org/2000/svg">
<path d="M22.0352 26.7272C21.8238 26.7274 21.618 26.6604 21.4472 26.5358L14.0003 21.1265L6.5533 26.5358C6.38251 26.6599 6.17685 26.7267 5.96576 26.7267C5.75468 26.7267 5.549 26.66 5.37818 26.536C5.20736 26.412 5.08016 26.2371 5.01479 26.0364C4.94942 25.8357 4.94924 25.6194 5.01427 25.4186L7.85903 16.6645L7.46013 16.3745C7.35012 16.2988 7.25639 16.2019 7.18445 16.0894C7.11251 15.9769 7.06382 15.8512 7.04126 15.7196C7.0187 15.588 7.02272 15.4532 7.05309 15.3232C7.08346 15.1932 7.13955 15.0705 7.21806 14.9625C7.29658 14.8545 7.39593 14.7634 7.51024 14.6944C7.62456 14.6254 7.75154 14.58 7.88368 14.5609C8.01582 14.5418 8.15046 14.5493 8.27964 14.583C8.40882 14.6168 8.52994 14.6761 8.63585 14.7574L9.62278 15.4732C9.79354 15.5974 9.92064 15.7724 9.98588 15.9733C10.0511 16.1741 10.0512 16.3904 9.98598 16.5913L7.86783 23.109L13.4124 19.0816C13.583 18.9569 13.7889 18.8896 14.0003 18.8896C14.2116 18.8896 14.4175 18.9569 14.5882 19.0816L20.1327 23.109L18.0146 16.5912C17.9493 16.3905 17.9493 16.1743 18.0146 15.9736C18.0798 15.7729 18.207 15.598 18.3778 15.4741L23.9229 11.4447H17.0691C16.8579 11.4447 16.6521 11.3777 16.4812 11.2535C16.3103 11.1293 16.1832 10.9541 16.118 10.7532L14.0003 4.23642L11.8825 10.7536C11.8174 10.9545 11.6902 11.1297 11.5194 11.2539C11.3485 11.3781 11.1427 11.4451 10.9314 11.4451H4.07715L5.86919 12.7478C5.97981 12.8232 6.07416 12.9201 6.14665 13.0326C6.21913 13.1452 6.26828 13.2712 6.29117 13.4031C6.31407 13.535 6.31024 13.6702 6.27992 13.8006C6.2496 13.931 6.19341 14.0539 6.11467 14.1622C6.03593 14.2705 5.93626 14.3619 5.82155 14.4309C5.70684 14.4999 5.57944 14.5452 5.44689 14.5641C5.31435 14.583 5.17937 14.5751 5.04995 14.5408C4.92052 14.5065 4.7993 14.4466 4.69346 14.3647L0.412063 11.2536C0.241253 11.1294 0.114127 10.9544 0.048902 10.7536C-0.0163234 10.5527 -0.0163001 10.3364 0.0489683 10.1356C0.114237 9.93474 0.2414 9.75974 0.412236 9.63562C0.583073 9.5115 0.788814 9.44465 0.999977 9.44464H10.2048L13.0491 0.691441C13.1142 0.490487 13.2414 0.315341 13.4123 0.191124C13.5832 0.0669065 13.789 0 14.0003 0C14.2115 0 14.4174 0.0669065 14.5883 0.191124C14.7591 0.315341 14.8863 0.490487 14.9515 0.691441L17.7958 9.44464H27.0006C27.2116 9.44477 27.4172 9.51167 27.588 9.63576C27.7587 9.75986 27.8858 9.93479 27.951 10.1355C28.0163 10.3362 28.0163 10.5524 27.9512 10.7532C27.8861 10.954 27.7591 11.129 27.5885 11.2532L20.1415 16.6645L22.9863 25.4186C23.035 25.5687 23.0475 25.7281 23.0227 25.884C22.998 26.0398 22.9368 26.1875 22.844 26.3152C22.7512 26.4428 22.6296 26.5466 22.489 26.6183C22.3485 26.6899 22.1929 26.7272 22.0352 26.7272Z" fill="white"/>
</svg>
