<svg width="282" height="80" viewBox="0 0 282 80" fill="none" xmlns="http://www.w3.org/2000/svg">
<path d="M12.8826 15.4532H30.9195V21.088H20.0366V35.2026H28.5716V40.8374H20.0366V62.6309H12.8826V15.4532Z" fill="#A61916"/>
<path d="M35.698 15.4532H43.4597C44.3436 15.4532 45.3103 15.49 46.36 15.5637C47.428 15.6373 48.4868 15.8215 49.5365 16.1161C50.6045 16.3923 51.6265 16.8158 52.6025 17.3867C53.5968 17.9575 54.4715 18.7401 55.2265 19.7345C55.9999 20.7289 56.6168 21.9811 57.0772 23.4911C57.5375 24.9826 57.7677 26.7965 57.7677 28.9325V30.1203C57.7677 33.7111 57.2521 36.639 56.2209 38.9039C55.1897 41.1505 53.6705 42.771 51.6633 43.7653L59.2316 62.6309H51.6633L45.3932 44.9807H42.7139V62.6309H35.698V15.4532ZM43.7912 39.8154C45.0433 39.8154 46.1022 39.6773 46.9676 39.4011C47.8331 39.1249 48.5329 38.6645 49.0669 38.02C49.6009 37.3571 49.9876 36.4916 50.227 35.4236C50.4664 34.3372 50.5861 33.0021 50.5861 31.4185V27.6895C50.5861 26.4742 50.4756 25.4246 50.2546 24.5407C50.0336 23.6568 49.6561 22.9294 49.1221 22.3586C48.6065 21.7877 47.916 21.3642 47.0505 21.088C46.185 20.8118 45.0986 20.6737 43.7912 20.6737H42.7139V39.8154H43.7912Z" fill="#A61916"/>
<path d="M64.6455 15.4532H71.7995V62.6309H64.6455V15.4532Z" fill="#A61916"/>
<path d="M89.4221 63.0728C88.8696 63.0728 88.2251 63.0084 87.4886 62.8795C86.752 62.769 85.9878 62.5204 85.196 62.1337C84.4226 61.747 83.6584 61.2038 82.9034 60.504C82.1484 59.7859 81.467 58.8467 80.8594 57.6866C80.2701 56.5081 79.7913 55.0718 79.423 53.3777C79.0548 51.6651 78.8706 49.6303 78.8706 47.2733V30.5622C78.8706 28.1867 79.064 26.1612 79.4507 24.4854C79.8374 22.7913 80.353 21.3734 80.9975 20.2317C81.642 19.0716 82.3786 18.1509 83.2072 17.4696C84.0543 16.7882 84.9289 16.2726 85.8313 15.9227C86.7336 15.5545 87.6267 15.3151 88.5106 15.2046C89.3944 15.0941 90.2139 15.0388 90.9689 15.0388C92.884 15.0388 94.4952 15.3059 95.8027 15.8399C97.1285 16.3555 98.1965 17.0736 99.0068 17.9944C99.8354 18.8967 100.425 19.9555 100.775 21.1708C101.143 22.3862 101.327 23.6752 101.327 25.0379C101.327 26.0507 101.263 26.9898 101.134 27.8553C101.023 28.7023 100.867 29.6415 100.664 30.6727H94.9464V28.4353C94.9464 23.2609 93.5561 20.6737 90.7755 20.6737C90.0205 20.6737 89.3668 20.8026 88.8144 21.0604C88.262 21.3182 87.8016 21.7601 87.4333 22.3862C87.065 22.9939 86.7888 23.8041 86.6047 24.8169C86.4389 25.8297 86.3561 27.0911 86.3561 28.6011V49.9802C86.3561 51.4534 86.4389 52.6779 86.6047 53.6539C86.7888 54.6298 87.0558 55.4124 87.4057 56.0017C87.774 56.591 88.2251 57.0145 88.7592 57.2723C89.3116 57.5117 89.9653 57.6314 90.7203 57.6314C91.5121 57.6314 92.1934 57.4288 92.7643 57.0237C93.3351 56.6002 93.8047 56.0293 94.173 55.3112C94.5413 54.593 94.8083 53.7459 94.974 52.77C95.1582 51.794 95.2502 50.7352 95.2502 49.5935V43.4339H91.5766V38.7382H102.211V62.6309H97.46L96.6866 58.1562C95.7842 59.9056 94.7438 61.167 93.5653 61.9404C92.4052 62.6953 91.0241 63.0728 89.4221 63.0728Z" fill="#A61916"/>
<path d="M119.281 63.0452C118.526 63.0452 117.707 62.9808 116.823 62.8519C115.939 62.7414 115.064 62.4928 114.199 62.1061C113.333 61.7194 112.495 61.1762 111.685 60.4764C110.893 59.7583 110.184 58.8191 109.558 57.659C108.951 56.4989 108.463 55.0718 108.094 53.3777C107.726 51.6651 107.542 49.6303 107.542 47.2733V30.5622C107.542 28.1867 107.726 26.1612 108.094 24.4854C108.481 22.7913 108.987 21.3734 109.613 20.2317C110.24 19.0716 110.949 18.1509 111.74 17.4696C112.551 16.7882 113.388 16.2726 114.254 15.9227C115.138 15.5545 116.012 15.3151 116.878 15.2046C117.743 15.0941 118.544 15.0388 119.281 15.0388C119.981 15.0388 120.754 15.0941 121.601 15.2046C122.467 15.2967 123.323 15.5176 124.17 15.8675C125.036 16.199 125.873 16.7054 126.684 17.3867C127.494 18.0496 128.212 18.9611 128.838 20.1212C129.464 21.2629 129.961 22.69 130.33 24.4026C130.716 26.0967 130.91 28.1499 130.91 30.5622V47.2733C130.91 49.6119 130.716 51.6283 130.33 53.3224C129.943 54.9981 129.437 56.4252 128.81 57.6038C128.184 58.7639 127.457 59.703 126.628 60.4212C125.818 61.1209 124.98 61.6733 124.115 62.0785C123.268 62.4652 122.421 62.723 121.574 62.8519C120.727 62.9808 119.962 63.0452 119.281 63.0452ZM119.281 57.659C119.981 57.659 120.588 57.5393 121.104 57.2999C121.638 57.0605 122.071 56.6462 122.402 56.057C122.752 55.4677 123.01 54.6943 123.176 53.7367C123.36 52.7608 123.452 51.5362 123.452 50.0631V28.6011C123.452 27.0911 123.36 25.8297 123.176 24.8169C123.01 23.8041 122.752 22.9939 122.402 22.3862C122.071 21.7601 121.638 21.3182 121.104 21.0604C120.588 20.8026 119.981 20.6737 119.281 20.6737C118.563 20.6737 117.937 20.8026 117.403 21.0604C116.869 21.3182 116.427 21.7601 116.077 22.3862C115.727 22.9939 115.46 23.8041 115.276 24.8169C115.11 25.8297 115.027 27.0911 115.027 28.6011V50.0631C115.027 51.5362 115.11 52.7608 115.276 53.7367C115.46 54.6943 115.727 55.4677 116.077 56.057C116.427 56.6462 116.869 57.0605 117.403 57.2999C117.937 57.5393 118.563 57.659 119.281 57.659Z" fill="#A61916"/>
<path d="M137.677 15.4532H144.914C145.982 15.4532 147.087 15.49 148.228 15.5637C149.37 15.6373 150.484 15.7938 151.571 16.0332C152.657 16.2726 153.688 16.6317 154.664 17.1105C155.64 17.5708 156.487 18.1969 157.206 18.9887C157.942 19.7806 158.522 20.7657 158.946 21.9443C159.388 23.1044 159.609 24.5039 159.609 26.1427V28.4353C159.609 29.6875 159.424 30.8384 159.056 31.888C158.706 32.9377 158.237 33.8676 157.647 34.6778C157.058 35.4696 156.386 36.1326 155.631 36.6666C154.876 37.1822 154.103 37.5321 153.311 37.7162V37.9372C155.649 38.3607 157.408 39.4748 158.587 41.2794C159.784 43.0656 160.382 45.3582 160.382 48.1572V50.5602C160.382 52.2728 160.189 53.7644 159.802 55.035C159.434 56.2871 158.909 57.3644 158.228 58.2667C157.546 59.1506 156.736 59.8779 155.797 60.4488C154.858 61.0196 153.826 61.4708 152.703 61.8022C151.58 62.1153 150.383 62.3363 149.112 62.4652C147.842 62.5757 146.534 62.6309 145.19 62.6309H137.677V15.4532ZM146.074 35.6446C147.032 35.6446 147.906 35.5341 148.698 35.3131C149.49 35.0737 150.162 34.7146 150.714 34.2359C151.285 33.7387 151.718 33.1034 152.013 32.33C152.326 31.5382 152.482 30.5898 152.482 29.485V27.5514C152.482 26.4466 152.372 25.4706 152.151 24.6236C151.93 23.7765 151.561 23.0583 151.046 22.4691C150.549 21.8798 149.886 21.4379 149.057 21.1432C148.247 20.8302 147.253 20.6737 146.074 20.6737H144.693V35.6446H146.074ZM146.737 57.659C147.694 57.659 148.56 57.5393 149.333 57.2999C150.125 57.0421 150.797 56.6554 151.35 56.1398C151.921 55.6058 152.353 54.9337 152.648 54.1234C152.961 53.3132 153.118 52.3557 153.118 51.2508V47.5771C153.118 46.4722 153.007 45.4963 152.786 44.6492C152.565 43.7837 152.197 43.0656 151.681 42.4947C151.184 41.9055 150.53 41.4635 149.72 41.1689C148.91 40.8559 147.915 40.6993 146.737 40.6993H144.693V57.659H146.737Z" fill="#A61916"/>
<path d="M177.065 63.0452C176.31 63.0452 175.491 62.9808 174.607 62.8519C173.723 62.7414 172.849 62.4928 171.983 62.1061C171.118 61.7194 170.28 61.1762 169.47 60.4764C168.678 59.7583 167.969 58.8191 167.343 57.659C166.735 56.4989 166.247 55.0718 165.879 53.3777C165.51 51.6651 165.326 49.6303 165.326 47.2733V30.5622C165.326 28.1867 165.51 26.1612 165.879 24.4854C166.265 22.7913 166.772 21.3734 167.398 20.2317C168.024 19.0716 168.733 18.1509 169.525 17.4696C170.335 16.7882 171.173 16.2726 172.038 15.9227C172.922 15.5545 173.797 15.3151 174.662 15.2046C175.528 15.0941 176.329 15.0388 177.065 15.0388C177.765 15.0388 178.539 15.0941 179.386 15.2046C180.251 15.2967 181.107 15.5176 181.954 15.8675C182.82 16.199 183.658 16.7054 184.468 17.3867C185.278 18.0496 185.996 18.9611 186.623 20.1212C187.249 21.2629 187.746 22.69 188.114 24.4026C188.501 26.0967 188.694 28.1499 188.694 30.5622V47.2733C188.694 49.6119 188.501 51.6283 188.114 53.3224C187.727 54.9981 187.221 56.4252 186.595 57.6038C185.969 58.7639 185.241 59.703 184.413 60.4212C183.603 61.1209 182.765 61.6733 181.899 62.0785C181.052 62.4652 180.205 62.723 179.358 62.8519C178.511 62.9808 177.747 63.0452 177.065 63.0452ZM177.065 57.659C177.765 57.659 178.373 57.5393 178.888 57.2999C179.423 57.0605 179.855 56.6462 180.187 56.057C180.537 55.4677 180.794 54.6943 180.96 53.7367C181.144 52.7608 181.236 51.5362 181.236 50.0631V28.6011C181.236 27.0911 181.144 25.8297 180.96 24.8169C180.794 23.8041 180.537 22.9939 180.187 22.3862C179.855 21.7601 179.423 21.3182 178.888 21.0604C178.373 20.8026 177.765 20.6737 177.065 20.6737C176.347 20.6737 175.721 20.8026 175.187 21.0604C174.653 21.3182 174.211 21.7601 173.861 22.3862C173.511 22.9939 173.244 23.8041 173.06 24.8169C172.895 25.8297 172.812 27.0911 172.812 28.6011V50.0631C172.812 51.5362 172.895 52.7608 173.06 53.7367C173.244 54.6943 173.511 55.4677 173.861 56.057C174.211 56.6462 174.653 57.0605 175.187 57.2999C175.721 57.5393 176.347 57.659 177.065 57.659Z" fill="#A61916"/>
<path d="M200.958 38.8763L192.34 15.4532H199.991L204.383 30.5346H204.659L209.051 15.4532H216.454L207.808 38.9039L216.454 62.6309H209.079L204.604 47.4666H204.135L199.467 62.6309H192.34L200.958 38.8763Z" fill="#A61916"/>
<path d="M219.907 57.6866C219.907 55.7347 220.293 54.3352 221.067 53.4881C221.84 52.6411 222.89 52.2175 224.216 52.2175C225.597 52.2175 226.665 52.6687 227.42 53.571C228.175 54.4733 228.552 55.8452 228.552 57.6866C228.552 59.3808 228.165 60.6974 227.392 61.6365C226.637 62.5572 225.569 63.0176 224.188 63.0176C222.88 63.0176 221.84 62.5664 221.067 61.6641C220.293 60.7618 219.907 59.436 219.907 57.6866Z" fill="#A61916"/>
<path d="M235.292 15.4532H242.529C243.597 15.4532 244.702 15.49 245.843 15.5637C246.985 15.6373 248.099 15.7938 249.186 16.0332C250.272 16.2726 251.303 16.6317 252.279 17.1105C253.255 17.5708 254.102 18.1969 254.82 18.9887C255.557 19.7806 256.137 20.7657 256.56 21.9443C257.002 23.1044 257.223 24.5039 257.223 26.1427V28.4353C257.223 29.6875 257.039 30.8384 256.671 31.888C256.321 32.9377 255.852 33.8676 255.262 34.6778C254.673 35.4696 254.001 36.1326 253.246 36.6666C252.491 37.1822 251.717 37.5321 250.926 37.7162V37.9372C253.264 38.3607 255.023 39.4748 256.201 41.2794C257.398 43.0656 257.997 45.3582 257.997 48.1572V50.5602C257.997 52.2728 257.803 53.7644 257.417 55.035C257.048 56.2871 256.524 57.3644 255.842 58.2667C255.161 59.1506 254.351 59.8779 253.412 60.4488C252.472 61.0196 251.441 61.4708 250.318 61.8022C249.195 62.1153 247.998 62.3363 246.727 62.4652C245.457 62.5757 244.149 62.6309 242.805 62.6309H235.292V15.4532ZM243.689 35.6446C244.646 35.6446 245.521 35.5341 246.313 35.3131C247.105 35.0737 247.777 34.7146 248.329 34.2359C248.9 33.7387 249.333 33.1034 249.627 32.33C249.94 31.5382 250.097 30.5898 250.097 29.485V27.5514C250.097 26.4466 249.987 25.4706 249.766 24.6236C249.545 23.7765 249.176 23.0583 248.661 22.4691C248.163 21.8798 247.501 21.4379 246.672 21.1432C245.862 20.8302 244.867 20.6737 243.689 20.6737H242.308V35.6446H243.689ZM244.352 57.659C245.309 57.659 246.175 57.5393 246.948 57.2999C247.74 57.0421 248.412 56.6554 248.965 56.1398C249.535 55.6058 249.968 54.9337 250.263 54.1234C250.576 53.3132 250.732 52.3557 250.732 51.2508V47.5771C250.732 46.4722 250.622 45.4963 250.401 44.6492C250.18 43.7837 249.812 43.0656 249.296 42.4947C248.799 41.9055 248.145 41.4635 247.335 41.1689C246.525 40.8559 245.53 40.6993 244.352 40.6993H242.308V57.659H244.352Z" fill="#A61916"/>
<path d="M264.239 15.4532H281.724V21.088H271.393V35.2026H279.376V40.8374H271.393V56.9961H282V62.6309H264.239V15.4532Z" fill="#A61916"/>
<path d="M223.894 68.105V77.7839H2V2H223.894V46.4818" stroke="#A61916" stroke-width="3.46" stroke-miterlimit="10"/>
</svg>
