<svg width="30" height="30" viewBox="0 0 30 30" fill="none" xmlns="http://www.w3.org/2000/svg">
<path d="M17.7132 24.5851C15.1836 24.5851 12.8467 23.8142 10.8952 22.5133L3.83636 29.5721C3.28201 30.1262 2.36652 30.1262 1.78856 29.5721L0.415327 28.1989C-0.138784 27.6448 -0.138784 26.7293 0.415327 26.1511L7.4983 19.1163C6.19759 17.1649 5.42641 14.828 5.42641 12.2984C5.42641 5.52857 10.9434 0.0115662 17.7132 0.0115662C24.483 0.0115662 30 5.52857 30 12.2984C30 19.0679 24.5071 24.5851 17.7132 24.5851ZM17.7132 4.82991C13.5935 4.82991 10.2448 8.17867 10.2448 12.2984C10.2448 16.418 13.5935 19.7668 17.7132 19.7668C21.8329 19.7668 25.1816 16.418 25.1816 12.2984C25.1816 8.17867 21.8329 4.82991 17.7132 4.82991Z" fill="#A61916"/>
</svg>
