<svg width="16" height="18" viewBox="0 0 16 18" fill="none" xmlns="http://www.w3.org/2000/svg">
<path d="M15.5793 18H13.7554C13.7554 14.9231 11.1746 12.4207 8.00015 12.4207C4.82566 12.4207 2.24577 14.924 2.24577 18H0.421875C0.421875 13.9163 3.82252 10.5968 8.00106 10.5968C12.1787 10.5968 15.5793 13.9163 15.5793 18Z" fill="#1E1E1E"/>
<path d="M8.00111 10.0041C5.2443 10.0041 3 7.75884 3 5.00203C2.99909 2.2443 5.24339 0 8.00111 0C10.7598 0 13.0041 2.24339 13.0041 5.00203C13.0041 7.76066 10.7598 10.0041 8.00111 10.0041ZM8.00111 1.82389C6.24835 1.82389 4.82298 3.24927 4.82298 5.00203C4.82298 6.75479 6.24835 8.18016 8.00111 8.18016C9.75479 8.18016 11.1802 6.75479 11.1802 5.00203C11.1802 3.24927 9.75296 1.82389 8.00111 1.82389Z" fill="#1E1E1E"/>
</svg>
