<svg width="24" height="38" viewBox="0 0 24 38" fill="none" xmlns="http://www.w3.org/2000/svg">
<path d="M2.82284 0.000641096C2.27258 -0.0114617 1.73221 0.148053 1.27687 0.457255C0.821531 0.766456 0.473841 1.21006 0.282144 1.726C0.0904469 2.24194 0.0642661 2.80471 0.207241 3.33621C0.350215 3.86772 0.65524 4.34126 1.07991 4.69139L17.2835 18.5728L1.07991 32.4492C0.786145 32.6651 0.540124 32.9392 0.357253 33.2546C0.174382 33.57 0.0586029 33.9199 0.0171634 34.2821C-0.0242761 34.6443 0.00951825 35.0111 0.11643 35.3596C0.223341 35.7082 0.401065 36.031 0.638475 36.3077C0.875885 36.5844 1.16786 36.8088 1.49613 36.9674C1.82439 37.126 2.18187 37.2151 2.54618 37.2292C2.91048 37.2432 3.27376 37.1821 3.61327 37.0493C3.95278 36.9164 4.2612 36.7149 4.51923 36.4574L23.0708 20.5846C23.3622 20.336 23.5961 20.0274 23.7565 19.6796C23.9169 19.3318 24 18.9533 24 18.5703C24 18.1873 23.9169 17.8088 23.7565 17.461C23.5961 17.1132 23.3622 16.8043 23.0708 16.5557L4.51923 0.667694C4.05058 0.251433 3.44949 0.0147778 2.82284 3.02411e-05V0.000641096Z" fill="#E1E1E1"/>
</svg>
