<svg width="24" height="38" viewBox="0 0 24 38" fill="none" xmlns="http://www.w3.org/2000/svg">
<path d="M21.1772 0.000641096C21.7274 -0.0114617 22.2678 0.148053 22.7231 0.457255C23.1785 0.766456 23.5262 1.21006 23.7179 1.726C23.9096 2.24194 23.9357 2.80471 23.7928 3.33621C23.6498 3.86772 23.3448 4.34126 22.9201 4.69139L6.71652 18.5728L22.9201 32.4492C23.2139 32.6651 23.4599 32.9392 23.6427 33.2546C23.8256 33.57 23.9414 33.9199 23.9828 34.2821C24.0243 34.6443 23.9905 35.0111 23.8836 35.3596C23.7767 35.7082 23.5989 36.031 23.3615 36.3077C23.1241 36.5844 22.8321 36.8088 22.5039 36.9674C22.1756 37.126 21.8181 37.2151 21.4538 37.2292C21.0895 37.2432 20.7262 37.1821 20.3867 37.0493C20.0472 36.9164 19.7388 36.7149 19.4808 36.4574L0.929167 20.5846C0.637836 20.336 0.403896 20.0274 0.243483 19.6796C0.0830688 19.3318 0 18.9533 0 18.5703C0 18.1873 0.0830688 17.8088 0.243483 17.461C0.403896 17.1132 0.637836 16.8043 0.929167 16.5557L19.4808 0.667694C19.9494 0.251433 20.5505 0.0147778 21.1772 3.02411e-05V0.000641096Z" fill="#E1E1E1"/>
</svg>
