<svg width="14" height="14" viewBox="0 0 14 14" xmlns="http://www.w3.org/2000/svg">
<path d="M8.26616 11.4729C7.08567 11.4729 5.99511 11.1131 5.08444 10.506L1.7903 13.8002C1.5316 14.0588 1.10438 14.0588 0.834661 13.8002L0.193819 13.1593C-0.0647659 12.9008 -0.0647659 12.4735 0.193819 12.2037L3.49921 8.9208C2.89221 8.01013 2.53233 6.91958 2.53233 5.73908C2.53233 2.57985 5.10693 0.00524902 8.26616 0.00524902C11.4254 0.00524902 14 2.57985 14 5.73908C14 8.8982 11.4366 11.4729 8.26616 11.4729ZM8.26616 2.25381C6.34364 2.25381 4.78089 3.81656 4.78089 5.73908C4.78089 7.6616 6.34364 9.22435 8.26616 9.22435C10.1887 9.22435 11.7514 7.6616 11.7514 5.73908C11.7514 3.81656 10.1887 2.25381 8.26616 2.25381Z" />
</svg>
