<svg width="24" height="23" viewBox="0 0 24 23" fill="none" xmlns="http://www.w3.org/2000/svg">
<path d="M18.8873 22.9091C18.7062 22.9092 18.5297 22.8518 18.3834 22.745L12.0002 18.1084L5.61712 22.745C5.47072 22.8513 5.29444 22.9086 5.11351 22.9086C4.93258 22.9086 4.75629 22.8514 4.60987 22.7451C4.46345 22.6388 4.35442 22.4889 4.29839 22.3169C4.24236 22.1449 4.24221 21.9595 4.29795 21.7874L6.73632 14.2839L6.39439 14.0353C6.3001 13.9704 6.21976 13.8873 6.1581 13.7909C6.09644 13.6945 6.05471 13.5867 6.03537 13.4739C6.01603 13.3611 6.01948 13.2456 6.04551 13.1342C6.07153 13.0227 6.11961 12.9176 6.18691 12.825C6.25421 12.7325 6.33937 12.6543 6.43735 12.5952C6.53534 12.5361 6.64417 12.4972 6.75744 12.4808C6.8707 12.4644 6.9861 12.4708 7.09683 12.4998C7.20756 12.5287 7.31138 12.5795 7.40216 12.6492L8.24809 13.2627C8.39447 13.3692 8.50341 13.5192 8.55933 13.6914C8.61524 13.8635 8.61528 14.049 8.55941 14.2211L6.74386 19.8077L11.4963 16.3556C11.6426 16.2487 11.8191 16.1911 12.0002 16.1911C12.1814 16.1911 12.3579 16.2487 12.5042 16.3556L17.2566 19.8077L15.4411 14.221C15.3851 14.049 15.3851 13.8637 15.4411 13.6917C15.497 13.5196 15.606 13.3697 15.7524 13.2635L20.5053 9.80973H14.6307C14.4496 9.80971 14.2732 9.75234 14.1267 9.64586C13.9803 9.53938 13.8713 9.38925 13.8154 9.217L12.0002 3.63122L10.185 9.21735C10.1292 9.38959 10.0202 9.53972 9.87373 9.6462C9.72727 9.75269 9.55085 9.81005 9.36978 9.81008H3.4947L5.03073 10.9267C5.12555 10.9913 5.20642 11.0744 5.26855 11.1708C5.33069 11.2673 5.37281 11.3753 5.39243 11.4884C5.41206 11.6014 5.40878 11.7173 5.38279 11.8291C5.3568 11.9408 5.30864 12.0462 5.24115 12.1391C5.17366 12.2319 5.08822 12.3102 4.9899 12.3694C4.89158 12.4285 4.78237 12.4674 4.66877 12.4835C4.55516 12.4997 4.43946 12.4929 4.32852 12.4636C4.21759 12.4342 4.11369 12.3828 4.02297 12.3126L0.353197 9.64593C0.206789 9.53951 0.0978234 9.38948 0.041916 9.21734C-0.0139914 9.04519 -0.0139715 8.85976 0.0419728 8.68763C0.0979171 8.5155 0.206914 8.36549 0.353345 8.2591C0.499777 8.15272 0.676126 8.09542 0.857123 8.09541H8.74696L11.1849 0.592663C11.2408 0.420417 11.3498 0.270292 11.4962 0.16382C11.6427 0.0573485 11.8192 0 12.0002 0C12.1813 0 12.3577 0.0573485 12.5042 0.16382C12.6507 0.270292 12.7597 0.420417 12.8156 0.592663L15.2535 8.09541H23.1433C23.3243 8.09552 23.5005 8.15286 23.6468 8.25923C23.7932 8.36559 23.9021 8.51553 23.958 8.68758C24.0139 8.85962 24.014 9.04495 23.9582 9.21703C23.9024 9.38911 23.7935 9.53912 23.6473 9.64559L17.2642 14.2839L19.7025 21.7874C19.7443 21.916 19.755 22.0527 19.7338 22.1862C19.7126 22.3198 19.6601 22.4465 19.5806 22.5558C19.5011 22.6652 19.3968 22.7543 19.2763 22.8157C19.1558 22.877 19.0225 22.909 18.8873 22.9091Z" fill="#A61916"/>
</svg>
