<svg width="18" height="17" viewBox="0 0 18 17" fill="none" xmlns="http://www.w3.org/2000/svg">
<path fill-rule="evenodd" clip-rule="evenodd" d="M0 0.941177C0 0.421384 0.402948 0 0.900001 0H2.7C3.1191 0 3.48272 0.302503 3.57695 0.729543L6.11596 12.2353H13.6973L15.9473 2.82353H9.00001C8.50294 2.82353 8.10001 2.40215 8.10001 1.88235C8.10001 1.36256 8.50294 0.941177 9.00001 0.941177H17.1C17.3771 0.941177 17.6388 1.0747 17.8094 1.30314C17.9799 1.53158 18.0403 1.82945 17.9731 2.11063L15.2731 13.4047C15.173 13.8237 14.813 14.1176 14.4 14.1176H5.40001C4.98088 14.1176 4.61728 13.8152 4.52305 13.3881L1.98404 1.88235H0.900001C0.402948 1.88235 0 1.46097 0 0.941177ZM7.20001 1.88235C7.20001 2.40215 6.79708 2.82353 6.30001 2.82353C5.80294 2.82353 5.40001 2.40215 5.40001 1.88235C5.40001 1.36256 5.80294 0.941177 6.30001 0.941177C6.79708 0.941177 7.20001 1.36256 7.20001 1.88235ZM7.20001 16C7.20001 16.5198 6.79708 16.9412 6.30001 16.9412C5.80294 16.9412 5.40001 16.5198 5.40001 16C5.40001 15.4802 5.80294 15.0588 6.30001 15.0588C6.79708 15.0588 7.20001 15.4802 7.20001 16ZM14.4 16C14.4 16.5198 13.9971 16.9412 13.5 16.9412C13.0029 16.9412 12.6 16.5198 12.6 16C12.6 15.4802 13.0029 15.0588 13.5 15.0588C13.9971 15.0588 14.4 15.4802 14.4 16Z" fill="white"/>
</svg>
