<svg width="25" height="24" viewBox="0 0 25 24" fill="none" xmlns="http://www.w3.org/2000/svg">
<path d="M12.6208 14.4023C13.9581 14.4023 15.0484 13.3249 15.0484 12C15.0484 11.477 14.8755 10.9941 14.5894 10.5997C14.1485 9.9945 13.4318 9.59766 12.6223 9.59766C11.8123 9.59766 11.096 9.99401 10.6541 10.5992C10.3671 10.9936 10.1957 11.4765 10.1952 11.9995C10.1937 13.3244 11.283 14.4023 12.6208 14.4023Z" fill="#D3D3D3"/>
<path d="M17.9198 9.06094V7.04724V6.74756L17.6156 6.74853L15.5825 6.75481L15.5903 9.06867L17.9198 9.06094Z" fill="#D3D3D3"/>
<path d="M12.6212 0C5.9376 0 0.5 5.38323 0.5 12C0.5 18.6163 5.9376 24 12.6212 24C19.3043 24 24.7424 18.6163 24.7424 12C24.7424 5.38323 19.3053 0 12.6212 0ZM19.5148 10.5997V16.1874C19.5148 17.6428 18.3195 18.8256 16.8504 18.8256H8.39202C6.9224 18.8256 5.72766 17.6428 5.72766 16.1874V10.5997V7.81358C5.72766 6.35866 6.9224 5.17586 8.39202 5.17586H16.8499C18.3195 5.17586 19.5148 6.35866 19.5148 7.81358V10.5997Z" fill="#D3D3D3"/>
<path d="M16.3919 11.9999C16.3919 14.0576 14.7006 15.7329 12.6212 15.7329C10.5417 15.7329 8.85095 14.0576 8.85095 11.9999C8.85095 11.5049 8.95055 11.0317 9.12827 10.5996H7.07031V16.1873C7.07031 16.9094 7.66256 17.4943 8.39151 17.4943H16.8494C17.5774 17.4943 18.1706 16.9094 18.1706 16.1873V10.5996H16.1117C16.2909 11.0317 16.3919 11.5049 16.3919 11.9999Z" fill="#D3D3D3"/>
</svg>
