<svg width="16" height="18" viewBox="0 0 16 18" fill="none" xmlns="http://www.w3.org/2000/svg">
<path d="M15.1575 18H13.3336C13.3336 14.9231 10.7528 12.4207 7.57828 12.4207C4.40379 12.4207 1.82389 14.924 1.82389 18H0C0 13.9163 3.40065 10.5968 7.57919 10.5968C11.7568 10.5968 15.1575 13.9163 15.1575 18Z" fill="white"/>
<path d="M7.57918 10.0041C4.82236 10.0041 2.57806 7.75884 2.57806 5.00203C2.57715 2.2443 4.82145 0 7.57918 0C10.3378 0 12.5821 2.24339 12.5821 5.00203C12.5821 7.76066 10.3378 10.0041 7.57918 10.0041ZM7.57918 1.82389C5.82642 1.82389 4.40105 3.24927 4.40105 5.00203C4.40105 6.75479 5.82642 8.18016 7.57918 8.18016C9.33285 8.18016 10.7582 6.75479 10.7582 5.00203C10.7582 3.24927 9.33103 1.82389 7.57918 1.82389Z" fill="white"/>
</svg>
