<svg width="25" height="24" viewBox="0 0 25 24" fill="none" xmlns="http://www.w3.org/2000/svg">
<path d="M12.407 0C5.79021 0 0.406982 5.38323 0.406982 12C0.406982 18.6163 5.79021 24 12.407 24C19.0233 24 24.407 18.6163 24.407 12C24.407 5.38323 19.0242 0 12.407 0ZM17.7602 9.25352C17.7656 9.37243 17.7685 9.49231 17.7685 9.61218C17.7685 13.2621 14.991 17.4693 9.90944 17.4693C8.34962 17.4693 6.8976 17.0135 5.67565 16.2294C5.89172 16.2551 6.11165 16.2681 6.33448 16.2681C7.62893 16.2681 8.81945 15.8263 9.76491 15.0858C8.5565 15.0636 7.53612 14.265 7.18472 13.1673C7.35293 13.1992 7.52645 13.2171 7.70385 13.2171C7.95568 13.2171 8.20026 13.1842 8.4318 13.1209C7.16828 12.8676 6.21654 11.7516 6.21654 10.4126C6.21654 10.401 6.21654 10.3889 6.21702 10.3778C6.58921 10.5842 7.01505 10.7089 7.46748 10.723C6.72697 10.2285 6.23925 9.38258 6.23925 8.42456C6.23925 7.91799 6.37508 7.44333 6.6129 7.03537C7.97453 8.70684 10.0105 9.80601 12.3055 9.92202C12.2581 9.71949 12.2344 9.50922 12.2344 9.29219C12.2344 7.76718 13.4709 6.53025 14.9959 6.53025C15.7905 6.53025 16.5074 6.86571 17.012 7.40224C17.6418 7.2785 18.2315 7.04938 18.7666 6.73181C18.5588 7.3771 18.1223 7.91799 17.5505 8.26021C18.1097 8.19351 18.6433 8.0456 19.1369 7.82567C18.7685 8.37864 18.3002 8.86538 17.7602 9.25352Z" fill="#D3D3D3"/>
</svg>
